<svg width="104" height="23" viewBox="0 0 104 23" fill="none" xmlns="http://www.w3.org/2000/svg">
<g clip-path="url(#clip0)">
<path d="M29.7722 22.6336C24.1875 22.6336 19.6445 17.5781 19.6445 11.3634C19.6445 5.14878 24.1875 0.0932617 29.7722 0.0932617C35.3568 0.0932617 39.8998 5.14878 39.8998 11.3634C39.8998 17.5781 35.3558 22.6336 29.7722 22.6336ZM29.7722 3.26812C25.7614 3.26812 22.4975 6.90015 22.4975 11.3634C22.4975 15.8267 25.7614 19.4587 29.7722 19.4587C33.783 19.4587 37.0468 15.8267 37.0468 11.3634C37.0468 6.90015 33.783 3.26812 29.7722 3.26812Z" fill="#FF9F50"/>
<path d="M65.6526 22.0813H62.7996V3.27112L65.6526 0.493408V22.0813Z" fill="#23303D"/>
<path d="M79.6489 0.493408H76.7959V22.0813H79.6489V0.493408Z" fill="#23303D"/>
<path d="M85.0104 3.26812H70.0088L71.5183 0.0932617H86.4369L85.0104 3.26812Z" fill="#23303D"/>
<path d="M16.6951 0.0932617V3.26812H8.17651L9.68601 0.0932617H16.6951Z" fill="#23303D"/>
<path d="M97.1052 0.493408H94.2522V22.0813H97.1052V0.493408Z" fill="#23303D"/>
<path d="M102.467 3.26812H87.4651L88.9756 0.0932617H103.893L102.467 3.26812Z" fill="#23303D"/>
<path d="M9.06963 22.2729C4.86482 22.2729 1.44434 18.4665 1.44434 13.7873H4.24547C4.24547 16.7474 6.4096 19.1557 9.06963 19.1557C11.7297 19.1557 13.8938 16.7474 13.8938 13.7873V2.12695H16.6949V13.7873C16.6949 18.4665 13.2744 22.2729 9.06963 22.2729Z" fill="#23303D"/>
<path d="M55.7221 11.1585C56.7315 10.0814 57.3612 8.56551 57.3612 6.88919C57.3612 3.62775 54.9772 0.973568 52.0453 0.973568H45.277V0.972412H42.4758V22.0996H44.7064V22.1019H52.8753C55.7947 22.1019 58.1725 19.4512 58.1912 16.1852V16.1459C58.1788 14.0505 57.1963 12.2091 55.7221 11.1585ZM45.277 4.0907H52.0453C53.4324 4.0907 54.5601 5.34563 54.5601 6.88919C54.5601 8.43274 53.4324 9.68883 52.0453 9.68883H45.277V4.0907ZM52.8753 18.9848H45.277V13.3474H52.8753C54.2561 13.3474 55.3807 14.6093 55.3901 16.1655C55.3807 17.7218 54.2561 18.9848 52.8753 18.9848Z" fill="#23303D"/>
</g>
<defs>
<clipPath id="clip0">
<rect width="104" height="22.5035" fill="white" transform="translate(0 0.129395)"/>
</clipPath>
</defs>
</svg>
