<svg width="22" height="22" viewBox="0 0 22 22" fill="none" xmlns="http://www.w3.org/2000/svg">
<path fill-rule="evenodd" clip-rule="evenodd" d="M0 11C0 4.92487 4.92487 0 11 0C17.0751 0 22 4.92487 22 11C22 17.0751 17.0751 22 11 22C4.92487 22 0 17.0751 0 11ZM11 2C6.02944 2 2 6.02944 2 11C2 12.7429 2.49542 14.3701 3.35313 15.7484C3.56732 14.8268 3.87679 13.9415 4.27567 13.337C5.10178 12.0851 6.27699 11.0899 7.66286 10.4686C7.0672 9.82845 6.67472 9.03312 6.53311 8.17924C6.3915 7.32535 6.50685 6.44967 6.86516 5.65862C7.22346 4.86756 7.80929 4.1952 8.55144 3.72322C9.2936 3.25125 10.1601 3 11.0457 3C11.9313 3 12.7978 3.25125 13.54 3.72322C14.2821 4.1952 14.868 4.86756 15.2263 5.65862C15.5846 6.44967 15.6999 7.32535 15.5583 8.17924C15.4167 9.03312 15.0242 9.82845 14.4286 10.4686C15.7973 11.1027 16.9536 12.1035 17.7629 13.3544C18.1496 13.9521 18.4494 14.8235 18.657 15.732C19.5085 14.3572 20 12.736 20 11C20 6.02944 15.9706 2 11 2ZM11 20C8.84192 20 6.86126 19.2404 5.31075 17.9741C5.43467 16.5014 6.01447 14.511 6.95939 13.588C8.03102 12.5413 9.48448 11.9532 11 11.9532C12.5155 11.9532 13.969 12.5413 15.0406 13.588C15.9855 14.511 16.5653 16.5014 16.6892 17.9741C15.1387 19.2404 13.1581 20 11 20ZM9.10006 6.24761C8.8489 6.61476 8.71484 7.04642 8.71484 7.48798C8.71484 8.08011 8.95566 8.64798 9.38431 9.06668C9.81297 9.48537 10.3943 9.7206 11.0006 9.7206C11.4526 9.7206 11.8945 9.58965 12.2704 9.34433C12.6463 9.09901 12.9393 8.75032 13.1123 8.34237C13.2853 7.93441 13.3305 7.48551 13.2424 7.05242C13.1542 6.61934 12.9365 6.22153 12.6168 5.90929C12.2971 5.59705 11.8899 5.38442 11.4465 5.29827C11.0031 5.21213 10.5435 5.25634 10.1259 5.42532C9.70819 5.5943 9.35121 5.88046 9.10006 6.24761Z" fill="#23303D"/>
</svg>
